<svg width="225" height="201" viewBox="0 0 225 201" fill="none" xmlns="http://www.w3.org/2000/svg">
<path fill-rule="evenodd" clip-rule="evenodd" d="M159.732 46.95C159.732 72.8798 138.376 93.9 112.032 93.9C85.6877 93.9 64.3317 72.8798 64.3317 46.95C64.3317 21.0202 85.6877 0 112.032 0C138.376 0 159.732 21.0202 159.732 46.95ZM143.832 46.95C143.832 64.2365 129.594 78.25 112.032 78.25C94.4691 78.25 80.2317 64.2365 80.2317 46.95C80.2317 29.6635 94.4691 15.65 112.032 15.65C129.594 15.65 143.832 29.6635 143.832 46.95Z" fill="url(#paint0_linear_540_51)"/>
<path d="M112.032 117.375C60.5604 117.375 16.7055 147.332 0 189.303C4.06957 193.28 8.35655 197.043 12.8419 200.571C25.2816 162.038 64.3056 133.025 112.032 133.025C159.758 133.025 198.782 162.038 211.222 200.571C215.707 197.043 219.994 193.28 224.064 189.303C207.358 147.332 163.503 117.375 112.032 117.375Z" fill="url(#paint1_linear_540_51)"/>
<defs>
<linearGradient id="paint0_linear_540_51" x1="112.032" y1="0" x2="112.032" y2="200.571" gradientUnits="userSpaceOnUse">
<stop stop-color="#093727"/>
<stop offset="1" stop-color="#199D6F"/>
</linearGradient>
<linearGradient id="paint1_linear_540_51" x1="112.032" y1="0" x2="112.032" y2="200.571" gradientUnits="userSpaceOnUse">
<stop stop-color="#093727"/>
<stop offset="1" stop-color="#199D6F"/>
</linearGradient>
</defs>
</svg>
