<svg width="58" height="57" viewBox="0 0 58 57" fill="none" xmlns="http://www.w3.org/2000/svg">
<rect x="1" y="1" width="56" height="55" rx="27.5" fill="url(#paint0_linear_78_85)"/>
<rect x="1" y="1" width="56" height="55" rx="27.5" stroke="url(#paint1_linear_78_85)" stroke-width="2"/>
<path fill-rule="evenodd" clip-rule="evenodd" d="M37.6999 22.8C37.6999 27.522 33.8047 31.35 28.9999 31.35C24.195 31.35 20.2999 27.522 20.2999 22.8C20.2999 18.078 24.195 14.25 28.9999 14.25C33.8047 14.25 37.6999 18.078 37.6999 22.8ZM34.7999 22.8C34.7999 25.948 32.2031 28.5 28.9999 28.5C25.7966 28.5 23.1999 25.948 23.1999 22.8C23.1999 19.652 25.7966 17.1 28.9999 17.1C32.2031 17.1 34.7999 19.652 34.7999 22.8Z" fill="url(#paint2_linear_78_85)"/>
<path d="M28.9999 35.625C19.612 35.625 11.6133 41.0805 8.56641 48.7237C9.30865 49.448 10.0906 50.1332 10.9086 50.7757C13.1775 43.7585 20.2951 38.475 28.9999 38.475C37.7046 38.475 44.8222 43.7585 47.0911 50.7757C47.9092 50.1332 48.6911 49.448 49.4333 48.7237C46.3864 41.0805 38.3877 35.625 28.9999 35.625Z" fill="url(#paint3_linear_78_85)"/>
<defs>
<linearGradient id="paint0_linear_78_85" x1="47.0779" y1="6.08" x2="10.1724" y2="48.314" gradientUnits="userSpaceOnUse">
<stop stop-color="#EAEAEA"/>
<stop offset="1" stop-color="white"/>
</linearGradient>
<linearGradient id="paint1_linear_78_85" x1="29" y1="0" x2="29" y2="57" gradientUnits="userSpaceOnUse">
<stop stop-color="#96FFE9"/>
<stop offset="1" stop-color="#5A998C"/>
</linearGradient>
<linearGradient id="paint2_linear_78_85" x1="28.9999" y1="14.25" x2="28.9999" y2="50.7757" gradientUnits="userSpaceOnUse">
<stop stop-color="#093727"/>
<stop offset="1" stop-color="#199D6F"/>
</linearGradient>
<linearGradient id="paint3_linear_78_85" x1="28.9999" y1="14.25" x2="28.9999" y2="50.7757" gradientUnits="userSpaceOnUse">
<stop stop-color="#093727"/>
<stop offset="1" stop-color="#199D6F"/>
</linearGradient>
</defs>
</svg>
