<svg width="1016" height="386" viewBox="0 0 1016 386" fill="none" xmlns="http://www.w3.org/2000/svg">
<path d="M378.852 308.364L0 121.519V247.864L251.102 371.704L378.852 308.364Z" fill="url(#paint0_linear_130_81)"/>
<path d="M765.53 140.978L1015.04 264.482V138.137L764.852 14.2966L765.53 140.978Z" fill="url(#paint1_linear_130_81)"/>
<path d="M1015.04 262.161L763.936 386L636.186 322.66L1015.04 135.815V262.161Z" fill="url(#paint2_linear_130_81)"/>
<path d="M0 123.84L250.185 0.000476366L249.846 126.514L0 250.186V123.84Z" fill="url(#paint3_linear_130_81)"/>
<path d="M285.734 228.408V135.317H322.461C329.492 135.317 335.492 136.574 340.461 139.09C345.461 141.574 349.264 145.105 351.87 149.68C354.507 154.226 355.825 159.574 355.825 165.726C355.825 171.908 354.492 177.226 351.825 181.68C349.158 186.105 345.295 189.499 340.234 191.862C335.204 194.226 329.113 195.408 321.961 195.408H297.37V179.59H318.78C322.537 179.59 325.658 179.074 328.143 178.044C330.628 177.014 332.476 175.468 333.689 173.408C334.931 171.347 335.552 168.787 335.552 165.726C335.552 162.635 334.931 160.029 333.689 157.908C332.476 155.786 330.613 154.18 328.098 153.09C325.613 151.968 322.476 151.408 318.689 151.408H305.416V228.408H285.734ZM336.007 186.044L359.143 228.408H337.416L314.78 186.044H336.007ZM400.064 229.771C392.882 229.771 386.7 228.317 381.518 225.408C376.367 222.468 372.397 218.317 369.609 212.953C366.821 207.559 365.427 201.18 365.427 193.817C365.427 186.635 366.821 180.332 369.609 174.908C372.397 169.483 376.321 165.256 381.382 162.226C386.473 159.196 392.442 157.68 399.291 157.68C403.897 157.68 408.185 158.423 412.155 159.908C416.155 161.362 419.639 163.559 422.609 166.499C425.609 169.438 427.942 173.135 429.609 177.59C431.276 182.014 432.109 187.196 432.109 193.135V198.453H373.155V186.453H413.882C413.882 183.665 413.276 181.196 412.064 179.044C410.851 176.893 409.17 175.211 407.018 173.999C404.897 172.756 402.427 172.135 399.609 172.135C396.67 172.135 394.064 172.817 391.791 174.18C389.548 175.514 387.791 177.317 386.518 179.59C385.245 181.832 384.594 184.332 384.564 187.09V198.499C384.564 201.953 385.2 204.938 386.473 207.453C387.776 209.968 389.609 211.908 391.973 213.271C394.336 214.635 397.139 215.317 400.382 215.317C402.533 215.317 404.503 215.014 406.291 214.408C408.079 213.802 409.609 212.893 410.882 211.68C412.155 210.468 413.124 208.983 413.791 207.226L431.7 208.408C430.791 212.711 428.927 216.468 426.109 219.68C423.321 222.862 419.715 225.347 415.291 227.135C410.897 228.893 405.821 229.771 400.064 229.771ZM435.064 151.544V135.317H511.518V151.544H483.018V228.408H463.564V151.544H435.064ZM545.439 229.771C538.257 229.771 532.075 228.317 526.893 225.408C521.742 222.468 517.772 218.317 514.984 212.953C512.196 207.559 510.802 201.18 510.802 193.817C510.802 186.635 512.196 180.332 514.984 174.908C517.772 169.483 521.696 165.256 526.757 162.226C531.848 159.196 537.817 157.68 544.666 157.68C549.272 157.68 553.56 158.423 557.53 159.908C561.53 161.362 565.014 163.559 567.984 166.499C570.984 169.438 573.317 173.135 574.984 177.59C576.651 182.014 577.484 187.196 577.484 193.135V198.453H518.53V186.453H559.257C559.257 183.665 558.651 181.196 557.439 179.044C556.226 176.893 554.545 175.211 552.393 173.999C550.272 172.756 547.802 172.135 544.984 172.135C542.045 172.135 539.439 172.817 537.166 174.18C534.923 175.514 533.166 177.317 531.893 179.59C530.62 181.832 529.969 184.332 529.939 187.09V198.499C529.939 201.953 530.575 204.938 531.848 207.453C533.151 209.968 534.984 211.908 537.348 213.271C539.711 214.635 542.514 215.317 545.757 215.317C547.908 215.317 549.878 215.014 551.666 214.408C553.454 213.802 554.984 212.893 556.257 211.68C557.53 210.468 558.499 208.983 559.166 207.226L577.075 208.408C576.166 212.711 574.302 216.468 571.484 219.68C568.696 222.862 565.09 225.347 560.666 227.135C556.272 228.893 551.196 229.771 545.439 229.771ZM621.666 229.771C614.514 229.771 608.363 228.256 603.211 225.226C598.09 222.165 594.151 217.923 591.393 212.499C588.666 207.074 587.302 200.832 587.302 193.771C587.302 186.62 588.681 180.347 591.439 174.953C594.226 169.529 598.181 165.302 603.302 162.271C608.423 159.211 614.514 157.68 621.575 157.68C627.666 157.68 632.999 158.787 637.575 160.999C642.151 163.211 645.772 166.317 648.439 170.317C651.105 174.317 652.575 179.014 652.848 184.408H634.575C634.06 180.923 632.696 178.12 630.484 175.999C628.302 173.847 625.439 172.771 621.893 172.771C618.893 172.771 616.272 173.59 614.03 175.226C611.817 176.832 610.09 179.18 608.848 182.271C607.605 185.362 606.984 189.105 606.984 193.499C606.984 197.953 607.59 201.741 608.802 204.862C610.045 207.983 611.787 210.362 614.03 211.999C616.272 213.635 618.893 214.453 621.893 214.453C624.105 214.453 626.09 213.999 627.848 213.09C629.636 212.18 631.105 210.862 632.257 209.135C633.439 207.377 634.211 205.271 634.575 202.817H652.848C652.545 208.15 651.09 212.847 648.484 216.908C645.908 220.938 642.348 224.09 637.802 226.362C633.257 228.635 627.878 229.771 621.666 229.771ZM684.609 188.044V228.408H665.245V135.317H684.064V170.908H684.882C686.458 166.787 689.003 163.559 692.518 161.226C696.033 158.862 700.442 157.68 705.745 157.68C710.594 157.68 714.821 158.741 718.427 160.862C722.064 162.953 724.882 165.968 726.882 169.908C728.912 173.817 729.912 178.499 729.882 183.953V228.408H710.518V187.408C710.548 183.105 709.458 179.756 707.245 177.362C705.064 174.968 702.003 173.771 698.064 173.771C695.427 173.771 693.094 174.332 691.064 175.453C689.064 176.574 687.488 178.211 686.336 180.362C685.215 182.483 684.639 185.044 684.609 188.044Z" fill="black"/>
<path d="M285.734 228.408V135.317H322.461C329.492 135.317 335.492 136.574 340.461 139.09C345.461 141.574 349.264 145.105 351.87 149.68C354.507 154.226 355.825 159.574 355.825 165.726C355.825 171.908 354.492 177.226 351.825 181.68C349.158 186.105 345.295 189.499 340.234 191.862C335.204 194.226 329.113 195.408 321.961 195.408H297.37V179.59H318.78C322.537 179.59 325.658 179.074 328.143 178.044C330.628 177.014 332.476 175.468 333.689 173.408C334.931 171.347 335.552 168.787 335.552 165.726C335.552 162.635 334.931 160.029 333.689 157.908C332.476 155.786 330.613 154.18 328.098 153.09C325.613 151.968 322.476 151.408 318.689 151.408H305.416V228.408H285.734ZM336.007 186.044L359.143 228.408H337.416L314.78 186.044H336.007ZM400.064 229.771C392.882 229.771 386.7 228.317 381.518 225.408C376.367 222.468 372.397 218.317 369.609 212.953C366.821 207.559 365.427 201.18 365.427 193.817C365.427 186.635 366.821 180.332 369.609 174.908C372.397 169.483 376.321 165.256 381.382 162.226C386.473 159.196 392.442 157.68 399.291 157.68C403.897 157.68 408.185 158.423 412.155 159.908C416.155 161.362 419.639 163.559 422.609 166.499C425.609 169.438 427.942 173.135 429.609 177.59C431.276 182.014 432.109 187.196 432.109 193.135V198.453H373.155V186.453H413.882C413.882 183.665 413.276 181.196 412.064 179.044C410.851 176.893 409.17 175.211 407.018 173.999C404.897 172.756 402.427 172.135 399.609 172.135C396.67 172.135 394.064 172.817 391.791 174.18C389.548 175.514 387.791 177.317 386.518 179.59C385.245 181.832 384.594 184.332 384.564 187.09V198.499C384.564 201.953 385.2 204.938 386.473 207.453C387.776 209.968 389.609 211.908 391.973 213.271C394.336 214.635 397.139 215.317 400.382 215.317C402.533 215.317 404.503 215.014 406.291 214.408C408.079 213.802 409.609 212.893 410.882 211.68C412.155 210.468 413.124 208.983 413.791 207.226L431.7 208.408C430.791 212.711 428.927 216.468 426.109 219.68C423.321 222.862 419.715 225.347 415.291 227.135C410.897 228.893 405.821 229.771 400.064 229.771ZM435.064 151.544V135.317H511.518V151.544H483.018V228.408H463.564V151.544H435.064ZM545.439 229.771C538.257 229.771 532.075 228.317 526.893 225.408C521.742 222.468 517.772 218.317 514.984 212.953C512.196 207.559 510.802 201.18 510.802 193.817C510.802 186.635 512.196 180.332 514.984 174.908C517.772 169.483 521.696 165.256 526.757 162.226C531.848 159.196 537.817 157.68 544.666 157.68C549.272 157.68 553.56 158.423 557.53 159.908C561.53 161.362 565.014 163.559 567.984 166.499C570.984 169.438 573.317 173.135 574.984 177.59C576.651 182.014 577.484 187.196 577.484 193.135V198.453H518.53V186.453H559.257C559.257 183.665 558.651 181.196 557.439 179.044C556.226 176.893 554.545 175.211 552.393 173.999C550.272 172.756 547.802 172.135 544.984 172.135C542.045 172.135 539.439 172.817 537.166 174.18C534.923 175.514 533.166 177.317 531.893 179.59C530.62 181.832 529.969 184.332 529.939 187.09V198.499C529.939 201.953 530.575 204.938 531.848 207.453C533.151 209.968 534.984 211.908 537.348 213.271C539.711 214.635 542.514 215.317 545.757 215.317C547.908 215.317 549.878 215.014 551.666 214.408C553.454 213.802 554.984 212.893 556.257 211.68C557.53 210.468 558.499 208.983 559.166 207.226L577.075 208.408C576.166 212.711 574.302 216.468 571.484 219.68C568.696 222.862 565.09 225.347 560.666 227.135C556.272 228.893 551.196 229.771 545.439 229.771ZM621.666 229.771C614.514 229.771 608.363 228.256 603.211 225.226C598.09 222.165 594.151 217.923 591.393 212.499C588.666 207.074 587.302 200.832 587.302 193.771C587.302 186.62 588.681 180.347 591.439 174.953C594.226 169.529 598.181 165.302 603.302 162.271C608.423 159.211 614.514 157.68 621.575 157.68C627.666 157.68 632.999 158.787 637.575 160.999C642.151 163.211 645.772 166.317 648.439 170.317C651.105 174.317 652.575 179.014 652.848 184.408H634.575C634.06 180.923 632.696 178.12 630.484 175.999C628.302 173.847 625.439 172.771 621.893 172.771C618.893 172.771 616.272 173.59 614.03 175.226C611.817 176.832 610.09 179.18 608.848 182.271C607.605 185.362 606.984 189.105 606.984 193.499C606.984 197.953 607.59 201.741 608.802 204.862C610.045 207.983 611.787 210.362 614.03 211.999C616.272 213.635 618.893 214.453 621.893 214.453C624.105 214.453 626.09 213.999 627.848 213.09C629.636 212.18 631.105 210.862 632.257 209.135C633.439 207.377 634.211 205.271 634.575 202.817H652.848C652.545 208.15 651.09 212.847 648.484 216.908C645.908 220.938 642.348 224.09 637.802 226.362C633.257 228.635 627.878 229.771 621.666 229.771ZM684.609 188.044V228.408H665.245V135.317H684.064V170.908H684.882C686.458 166.787 689.003 163.559 692.518 161.226C696.033 158.862 700.442 157.68 705.745 157.68C710.594 157.68 714.821 158.741 718.427 160.862C722.064 162.953 724.882 165.968 726.882 169.908C728.912 173.817 729.912 178.499 729.882 183.953V228.408H710.518V187.408C710.548 183.105 709.458 179.756 707.245 177.362C705.064 174.968 702.003 173.771 698.064 173.771C695.427 173.771 693.094 174.332 691.064 175.453C689.064 176.574 687.488 178.211 686.336 180.362C685.215 182.483 684.639 185.044 684.609 188.044Z" fill="black" fill-opacity="0.2"/>
<defs>
<linearGradient id="paint0_linear_130_81" x1="96.0554" y1="269.723" x2="423.518" y2="83.285" gradientUnits="userSpaceOnUse">
<stop stop-color="#37B594"/>
<stop offset="1" stop-color="#96FFE9"/>
</linearGradient>
<linearGradient id="paint1_linear_130_81" x1="819.125" y1="95.531" x2="1043.53" y2="229.28" gradientUnits="userSpaceOnUse">
<stop stop-color="#37B594"/>
<stop offset="1" stop-color="#96FFE9"/>
</linearGradient>
<linearGradient id="paint2_linear_130_81" x1="614.529" y1="105.392" x2="941.991" y2="291.83" gradientUnits="userSpaceOnUse">
<stop stop-color="#37B594"/>
<stop offset="1" stop-color="#96FFE9"/>
</linearGradient>
<linearGradient id="paint3_linear_130_81" x1="239.454" y1="68.1706" x2="20.9215" y2="172.953" gradientUnits="userSpaceOnUse">
<stop stop-color="#37B594"/>
<stop offset="1" stop-color="#96FFE9"/>
</linearGradient>
</defs>
</svg>
